<svg width="128" height="129" viewBox="0 0 128 129" fill="none" xmlns="http://www.w3.org/2000/svg">
<rect width="128" height="128" fill="black"/>
<path d="M75.3445 19.8937C75.3445 19.8937 75.9667 16.0371 77.1628 15.3418C78.9825 14.9319 82.8283 16.117 83.9446 17.5824C84.2884 18.389 83.7172 19.7562 83.1054 20.3847C77.1837 21.7886 76.1641 18.6051 72.6177 20.1739M71.2203 18.9836C71.2203 18.9836 73.8713 18.8487 74.0164 18.0027C74.2647 16.5544 75.7706 15.8931 77.0229 15.4112M76.8125 24.587C80.074 26.1322 85.3342 23.563 86.3982 23.5512C88.7787 23.5263 88.1525 20.0063 84.0139 18.4938M83.0361 20.2446C83.0361 20.2446 82.6178 21.414 82.8962 21.7846C83.2296 22.2299 84.3681 21.6995 84.7132 22.1356C85.0531 22.5638 84.644 23.9558 84.644 23.9558M83.9446 17.6531C87.3799 18.3393 89.8885 19.0962 89.1878 22.9056C88.9577 23.9165 87.342 25.0925 86.4976 26.385C85.257 28.2851 84.7132 30.1905 84.7132 30.1905M80.7982 15.8315C80.7982 15.8315 84.159 13.9707 85.4126 14.6412C88.3172 16.1956 90.1917 20.3389 90.3068 23.6756C90.1434 26.2147 87.0911 31.5209 87.0911 31.5209M85.4126 30.5401C86.9812 28.7814 88.8675 27.0974 90.0976 24.6564M67.9339 29.279C66.764 21.4036 64.9025 13.7887 72.5484 10.0186M66.9549 16.8124C72.9327 18.3917 76.0308 24.3775 80.3786 28.2288C85.41 30.51 93.3447 33.2416 93.0336 39.9962M92.1944 40.1363C92.1944 40.1363 90.9499 37.4112 90.027 36.5639C87.4061 34.1583 81.742 33.9619 79.3994 31.3101C74.8817 26.1938 72.7471 21.8488 66.7444 18.5632M75.6948 47.0702C74.6634 37.1087 67.5588 30.1826 63.7038 21.4703C60.8881 15.1048 63.564 4.87346 72.6883 9.94786C74.4098 11.0583 76.3929 15.6914 76.3929 15.6914M64.4372 10.2281C59.4816 10.5083 54.8632 12.8458 58.075 15.4112C54.5808 16.1982 54.9364 16.722 56.9573 20.2446C61.096 30.1852 69.3784 34.9493 72.6177 44.6188M61.2214 27.4588C59.7391 33.6371 59.3731 36.1226 59.7535 36.1435M64.8568 9.80774C65.1548 5.3331 66.2176 5.81238 69.1915 3.57441C70.8242 0.944888 74.7014 1.89822 78.5615 1.05358C79.6687 0.833578 81.1276 -0.293919 82.1969 0.072747C84.6165 2.34477 87.2675 7.14941 88.6283 10.1587C92.8532 19.3044 94.814 25.8075 87.3002 31.4502M65.4163 6.72643C58.9077 7.25417 56.6345 1.1937 52.6462 1.53155C53.0972 6.63738 50.6095 12.0104 50.105 17.3021C50.0461 19.1342 51.4867 18.6536 52.7612 18.9128C54.8005 21.4311 55.9364 20.9452 56.8868 20.314C56.8018 28.6845 54.8357 32.7414 58.2855 40.2057M56.3979 27.1078C56.3979 27.1078 55.8776 23.1177 54.5795 22.2757C52.4841 20.9151 47.7324 17.8417 45.6997 19.053C43.2264 25.9908 45.7376 36.0362 45.2801 43.7781C45.1258 44.992 43.7127 46.5621 44.1624 47.7001C47.7337 51.1703 53.1508 51.4623 57.7953 50.6413M88.2793 9.45809C88.2793 9.45809 91.1565 9.73047 92.3343 10.088C93.2859 10.3774 94.3696 11.2744 95.3408 11.4892C97.2663 11.9161 100.696 9.93476 101.913 11.4892C100.936 17.0717 99.3945 21.7244 99.6755 27.8399M91.8728 25.9345C98.5108 24.1117 102.562 31.4659 109.534 34.6022C110.736 36.8808 105.098 38.9472 103.87 39.9254C103.206 40.6863 103.474 42.4515 102.682 43.0775C98.6494 46.2662 90.7748 44.4904 85.6923 45.2487C84.7028 45.3966 83.406 45.8458 82.406 45.8091C80.1393 45.7253 75.0648 43.9876 75.0648 43.9876M74.785 43.1469C84.44 42.0652 92.6833 41.4576 101.004 36.2837M103.311 41.6763C103.191 41.7981 109.69 49.0777 109.883 49.2414C112.089 51.0983 104.293 53.3939 102.262 55.6148C100.568 57.4678 100.456 62.0616 98.0677 62.829C97.2703 63.0857 95.201 61.5679 95.201 61.5679M79.8897 49.8713C83.5511 48.6508 86.3172 47.4473 89.0479 45.1085M88.21 45.669C95.4598 46.3919 106.55 47.8271 100.444 57.6459C99.4481 58.7734 97.2232 59.1545 96.1095 60.1667C93.7996 63.252 95.3748 63.6396 91.7055 62.9691C90.4362 62.9272 88.7342 63.8688 87.5107 63.5296C80.4191 61.5627 72.1 52.3502 65.5561 49.5216C62.4986 48.199 57.5652 41.9801 58.0057 37.825C58.0842 37.0851 59.0253 36.2169 59.7535 36.0728C61.6254 35.7022 63.6398 37.8931 65.2764 38.8752C73.1863 45.6756 79.8949 50.3427 89.2584 54.9836M85.0636 52.7431C88.0675 52.2507 91.2336 52.2009 93.1735 50.6413M77.8622 57.9955C77.8622 57.9955 70.2216 60.9171 67.5143 59.1165C63.194 56.2421 56.6462 48.6639 50.8043 45.2487C49.4553 44.4603 52.5978 40.4073 53.5364 42.4371C56.0292 47.8376 71.4111 55.7798 71.5915 53.4384M53.7913 42.8627C56.007 43.4651 57.7038 44.4027 60.1025 44.2678M55.2907 127.725L53.4854 111.395C54.2161 107.467 55.4645 103.394 56.1142 99.2822C56.492 94.7512 55.0174 84.1716 55.0174 84.1716L52.4109 78.813L48.0226 75.1045L41.714 69.0584C36.0695 77.3189 27.7988 80.5377 18.6732 83.6216C17.8052 82.8922 16.9372 83.3558 16.0679 83.8966C15.5791 83.4212 14.9921 83.0755 13.7372 83.6216C13.2666 82.9734 12.664 82.7246 11.6797 83.6216C10.7973 83.1921 9.99728 82.6604 8.1136 83.4841C7.83124 82.6224 6.66783 82.6421 5.09657 83.0729C4.75277 81.8236 5.38677 81.0654 6.05606 80.3242C4.45865 81.0667 6.89267 78.5354 7.01686 77.4393C5.72926 78.6362 7.32274 75.898 8.79988 73.3183C6.9345 74.1564 8.65348 72.2327 10.0339 70.5696C13.2588 65.7715 16.1098 62.791 21.5778 61.7133C24.4785 60.1445 29.1635 61.5679 31.7596 63.5663L33.8969 65.2123C35.9139 67.267 37.6068 67.0522 39.382 67.4097L40.8918 67.5472L36.5022 63.4261C35.4603 63.9932 34.4133 64.5772 33.6224 64.3873M66.9261 58.9096C63.8581 69.8795 59.3652 82.8097 59.3979 84.5802L59.5927 94.8822M64.5326 56.5302C62.377 65.0041 59.994 73.9901 57.1678 81.5683M56.9364 81.6979L49.6684 73.5933L48.7089 73.3183L44.3193 69.0584L45.1428 67.5472C50.2056 68.3761 55.1508 69.5377 61.4633 66.861M65.1653 65.6248L73.8294 61.8573C73.8072 61.2968 74.0347 60.8621 75.0399 60.8163C74.8778 59.9402 75.4556 58.5325 76.585 58.4329M58.1717 51.1991C53.8593 50.8927 49.4448 52.9185 46.4173 55.4511C42.2395 58.9436 43.6278 62.5409 44.8683 65.4873L43.6343 67.8222L37.8734 62.6011C39.314 58.0335 40.565 55.8414 37.6002 51.8853L31.1544 55.5952L28.0001 56.4189L26.7648 58.0676C25.0053 59.8315 23.6314 60.4326 22.102 61.5024M41.8513 68.5097L31.8394 67.9597L11.1306 78.9505M45.2801 66.4485C50.1442 59.7058 55.5011 58.5678 63.4293 57.1692M36.2277 62.4636C33.8747 59.5866 30.991 58.0401 28.1361 56.4189M59.543 94.0572L64.0685 90.9012L69.5549 89.2512C72.2726 87.1691 75.7301 85.8046 78.606 88.4262L83.2688 86.5065C83.9002 83.9123 83.6243 81.5774 82.4452 79.5005L84.5028 77.8518C87.3473 71.9276 93.499 68.7926 99.8638 68.0972C101.72 68.4573 103.457 68.456 104.8 67.2722C105.979 67.4084 107.285 68.1784 108.229 67.136C109.951 67.064 111.814 67.6886 113.303 66.4485C115.15 66.7549 115.555 65.2608 116.457 64.3873L117.412 65.0748C119.229 64.7697 120.941 64.2485 122.497 63.4261L124 61.0899L123.725 64.1123C122.837 64.9373 121.529 65.761 122.353 66.586C121.569 67.0902 121.059 67.593 121.804 68.0972C120.667 68.7389 121.203 69.3792 121.255 70.0209C119.189 72.3584 119.712 72.8822 120.157 73.4558C119.229 74.7378 118.235 76.0198 119.059 77.3018C116.876 77.717 117.085 78.7292 116.863 79.638C114.795 79.8908 114.769 80.8297 114.127 81.5617C112.891 81.7437 111.758 81.9886 111.795 82.9354C105.115 87.575 95.7291 87.3131 88.3434 84.5841L85.0518 86.644L94.6519 89.1203L96.9827 88.2953L98.903 88.8453C98.903 88.8453 104.247 87.4179 106.205 88.0465C118.523 94.6858 106.942 110.06 103.042 112.823C100.874 114.368 92.682 118.257 86.9956 122.12C87.5826 121.099 87.1159 120.706 86.4231 120.444C86.6231 119.396 85.8636 118.925 84.7773 118.65C85.474 117.485 84.4413 115.782 83.9145 115.35M94.9264 95.7072L94.6519 92.2762L94.7892 90.6262L84.64 87.8762C84.64 87.8762 86.0322 90.6131 87.1094 91.5691C88.8349 93.1012 94.1029 95.0262 94.1029 95.0262C96.8781 101.81 94.4166 106.733 89.8519 111.369C87.8558 111.683 87.4636 112.783 86.9721 113.844C86.0296 113.818 85.2453 113.975 85.3263 115.219C83.8675 114.865 83.6047 115.69 83.1315 116.319C81.0766 116.227 80.8308 117.655 80.2517 118.794C79.674 119.239 78.9864 119.54 79.155 120.994C78.2295 120.968 77.9406 121.78 77.7824 122.775L77.6465 124.844C77.0543 123.535 77.236 121.832 75.7262 120.994C75.5746 119.763 74.8543 118.82 73.6687 118.1C73.568 117.039 73.7798 115.9 72.7092 115.088C72.9 114.145 72.4386 113.595 71.3366 113.438C71.6699 112.168 70.7588 111.906 69.8281 111.644C70.3052 110.073 69.4987 109.785 69.0059 109.182C66.1548 102.923 66.3875 97.1476 69.2804 90.7703L65.028 92.0012L60.3652 97.7762C60.3652 97.7762 57.3887 109.929 56.526 115.219C55.905 119.03 55.1547 128 55.1547 128M71.1771 88.0858L69.2804 91.0453M84.091 87.8762C80.9969 98.9941 78.9275 109.077 76.5484 119.475M85.1891 85.4078C93.2702 76.6811 103.798 72.9673 114.674 68.7847M96.2977 90.0762C108.414 94.3191 95.2951 110.06 91.0859 116.188" stroke="white" stroke-width="1.7048"/>
</svg>
