<svg width="297" height="318" viewBox="0 0 297 318" fill="none" xmlns="http://www.w3.org/2000/svg">
<path class="path" d="M175.471 50.2539C175.471 50.2539 177.015 40.7056 179.981 38.984C184.494 37.9692 194.033 40.9034 196.802 44.5314C197.654 46.5286 196.238 49.9134 194.72 51.4697C180.033 54.9453 177.504 47.0635 168.708 50.9477M165.242 48.0005C165.242 48.0005 171.817 47.6666 172.177 45.5721C172.793 41.9863 176.528 40.349 179.634 39.1559M179.112 61.8739C187.202 65.6996 200.248 59.3385 202.887 59.3093C208.791 59.2477 207.238 50.5327 196.974 46.788M194.548 51.1228C194.548 51.1228 193.511 54.018 194.202 54.9356C195.028 56.0379 197.852 54.7248 198.708 55.8045C199.551 56.8647 198.536 60.3111 198.536 60.3111M196.802 44.7065C205.322 46.4054 211.544 48.2794 209.806 57.7109C209.236 60.2139 205.228 63.1254 203.134 66.3254C200.057 71.0298 198.708 75.7472 198.708 75.7472M188.998 40.1966C188.998 40.1966 197.333 35.5894 200.443 37.2494C207.647 41.0979 212.296 51.3562 212.582 59.6173C212.176 65.9039 204.606 79.0412 204.606 79.0412M200.443 76.6128C204.333 72.2586 209.012 68.0891 212.063 62.0457M157.091 73.4906C154.19 53.9921 149.573 35.1388 168.536 25.8045M154.663 42.625C169.49 46.5351 177.174 61.3551 187.957 70.8904C200.436 76.5383 220.116 83.3015 219.345 100.025M217.263 100.372C217.263 100.372 214.177 93.6246 211.888 91.5269C205.387 85.571 191.339 85.0847 185.529 78.5193C174.324 65.852 169.029 55.0944 154.141 46.9598M176.34 117.539C173.782 92.8757 156.161 75.7277 146.6 54.1575C139.616 38.3972 146.253 13.066 168.883 25.6294C173.153 28.3788 178.072 39.8497 178.072 39.8497M148.419 26.3233C136.127 27.0171 124.673 32.8044 132.639 39.1559C123.973 41.1044 124.854 42.4013 129.867 51.1228C140.132 75.7342 160.674 87.5293 168.708 111.47M140.443 68.984C136.766 84.2806 135.858 90.4343 136.802 90.4862M149.459 25.2825C150.199 14.204 152.834 15.3906 160.21 9.84972C164.26 3.3394 173.876 5.69972 183.45 3.60851C186.197 3.06382 189.815 0.272299 192.467 1.18011C198.468 6.80531 205.043 18.7009 208.419 26.1514C218.897 48.7949 223.761 64.8956 205.124 78.8662M150.847 17.6537C134.704 18.9603 129.066 3.95542 119.174 4.7919C120.293 17.4332 114.123 30.7359 112.871 43.8376C112.725 48.3734 116.298 47.1835 119.459 47.8255C124.517 54.0602 127.335 52.8573 129.692 51.2946C129.481 72.0187 124.605 82.063 133.161 100.543M128.479 68.1151C128.479 68.1151 127.189 58.2361 123.969 56.1514C118.772 52.7828 106.987 45.1734 101.945 48.1724C95.8109 65.3495 102.039 90.2203 100.904 109.388C100.522 112.394 97.017 116.281 98.1323 119.098C106.99 127.69 120.426 128.413 131.945 126.38M207.553 24.4169C207.553 24.4169 214.689 25.0912 217.61 25.9764C219.97 26.6929 222.658 28.9138 225.067 29.4455C229.843 30.5025 238.35 25.597 241.369 29.4455C238.944 43.2669 235.121 54.7864 235.818 69.9275M216.466 65.2101C232.929 60.697 242.977 78.9051 260.271 86.6701C263.25 92.3115 249.267 97.4277 246.222 99.8496C244.575 101.733 245.24 106.104 243.275 107.654C233.273 115.548 213.742 111.152 201.137 113.029C198.682 113.395 195.466 114.508 192.986 114.417C187.364 114.209 174.778 109.907 174.778 109.907M174.084 107.825C198.031 105.147 218.476 103.643 239.112 90.8331M244.835 104.184C244.537 104.486 260.657 122.509 261.137 122.915C266.606 127.512 247.27 133.195 242.235 138.694C238.033 143.282 237.754 154.656 231.83 156.555C229.853 157.191 224.72 153.433 224.72 153.433M186.745 124.474C195.826 121.452 202.686 118.473 209.459 112.682M207.381 114.07C225.362 115.86 252.869 119.413 237.725 143.723C235.254 146.514 229.736 147.458 226.974 149.964C221.245 157.603 225.151 158.562 216.051 156.902C212.902 156.799 208.681 159.13 205.646 158.29C188.058 153.42 167.424 130.611 151.194 123.608C143.61 120.334 131.374 104.937 132.467 94.6491C132.662 92.8173 134.996 90.6677 136.802 90.3111C141.445 89.3935 146.441 94.8177 150.5 97.2494C170.119 114.086 186.758 125.641 209.981 137.132M199.577 131.584C207.028 130.365 214.88 130.242 219.692 126.38M181.716 144.589C181.716 144.589 162.765 151.822 156.051 147.364C145.335 140.247 129.095 121.485 114.606 113.029C111.26 111.077 119.054 101.043 121.382 106.068C127.565 119.439 165.716 139.103 166.163 133.306M122.014 107.122C127.51 108.613 131.718 110.935 137.668 110.601M125.733 317.229L121.256 276.798C123.068 267.072 126.164 256.989 127.776 246.808C128.713 235.59 125.055 209.397 125.055 209.397L118.59 196.13L107.706 186.948L92.0597 171.979C78.0599 192.43 57.5466 200.4 34.9129 208.035C32.7601 206.229 30.6072 207.377 28.4512 208.716C27.2386 207.539 25.7829 206.683 22.6704 208.035C21.5032 206.43 20.0085 205.814 17.5672 208.035C15.3787 206.971 13.3945 205.655 8.72249 207.694C8.02217 205.561 5.13663 205.61 1.23952 206.676C0.386822 203.583 1.95928 201.706 3.61928 199.871C-0.342672 201.709 5.69428 195.442 6.00229 192.729C2.80874 195.692 6.76096 188.912 10.4246 182.525C5.79803 184.6 10.0615 179.838 13.4853 175.72C21.4837 163.841 28.5549 156.461 42.117 153.793C49.3114 149.909 60.9314 153.433 67.3704 158.381L72.6714 162.456C77.6741 167.543 81.8727 167.012 86.2756 167.897L90.0203 168.237L79.1331 158.034C76.549 159.438 73.9521 160.884 71.9905 160.414M154.592 146.852C146.982 174.011 135.839 206.025 135.92 210.408L136.403 235.914M148.655 140.961C143.309 161.941 137.398 184.189 130.389 202.951M129.815 203.272L111.788 183.206L109.409 182.525L98.5213 171.979L100.564 168.237C113.121 170.289 125.386 173.165 141.043 166.538M150.225 163.478L171.714 154.15C171.659 152.762 172.223 151.686 174.716 151.572C174.314 149.403 175.747 145.918 178.548 145.671M132.879 127.762C122.183 127.003 111.234 132.019 103.725 138.289C93.363 146.936 96.8062 155.842 99.8831 163.137L96.8224 168.918L82.5341 155.991C86.107 144.683 89.2098 139.255 81.8565 129.46L65.8693 138.646L58.0459 140.685L54.982 144.767C50.618 149.134 47.2105 150.622 43.4171 153.271M92.4001 170.62L67.5682 169.258L16.2055 196.47M100.904 165.517C112.969 148.823 126.255 146.005 145.919 142.543M78.4522 155.651C72.6163 148.528 65.464 144.699 58.3831 140.685M136.28 233.872L147.504 226.058L161.112 221.973C167.852 216.818 176.428 213.44 183.561 219.93L195.126 215.177C196.692 208.755 196.007 202.974 193.083 197.832L198.186 193.75C205.241 179.082 220.499 171.32 236.285 169.599C240.889 170.49 245.198 170.487 248.528 167.556C251.452 167.893 254.691 169.8 257.032 167.219C261.305 167.041 265.925 168.587 269.618 165.517C274.199 166.276 275.204 162.576 277.441 160.414L279.808 162.116C284.315 161.36 288.562 160.07 292.42 158.034L296.149 152.25L295.468 159.733C293.263 161.775 290.021 163.815 292.064 165.857C290.118 167.106 288.854 168.351 290.702 169.599C287.881 171.187 289.211 172.773 289.34 174.362C284.218 180.149 285.515 181.446 286.617 182.866C284.315 186.04 281.851 189.214 283.893 192.388C278.479 193.416 278.998 195.922 278.447 198.172C273.317 198.798 273.253 201.123 271.661 202.935C268.597 203.386 265.786 203.992 265.877 206.336C249.309 217.823 226.03 217.175 207.712 210.418L199.548 215.518L223.359 221.649L229.139 219.606L233.902 220.968C233.902 220.968 247.156 217.434 252.013 218.99C282.564 235.428 253.842 273.491 244.167 280.332C238.791 284.158 218.473 293.788 204.369 303.352C205.825 300.823 204.667 299.85 202.949 299.202C203.445 296.608 201.561 295.441 198.867 294.76C200.595 291.875 198.034 287.66 196.727 286.59M224.039 237.957L223.359 229.463L223.699 225.377L198.527 218.569C198.527 218.569 201.98 225.345 204.651 227.712C208.931 231.505 221.997 236.271 221.997 236.271C228.88 253.066 222.775 265.256 211.453 276.734C206.502 277.512 205.53 280.235 204.311 282.861C201.973 282.797 200.028 283.186 200.229 286.266C196.61 285.39 195.959 287.433 194.785 288.989C189.688 288.762 189.079 292.296 187.643 295.117C186.21 296.219 184.504 296.965 184.922 300.564C182.627 300.499 181.91 302.509 181.518 304.973L181.181 310.096C179.712 306.854 180.163 302.639 176.418 300.564C176.042 297.516 174.256 295.182 171.315 293.398C171.065 290.772 171.591 287.952 168.935 285.941C169.409 283.607 168.264 282.245 165.531 281.856C166.358 278.711 164.098 278.063 161.789 277.414C162.973 273.524 160.972 272.811 159.75 271.319C152.679 255.822 153.256 241.523 160.431 225.734L149.884 228.782L138.319 243.08C138.319 243.08 130.937 273.167 128.797 286.266C127.257 295.7 125.396 317.909 125.396 317.909M165.135 219.088L160.431 226.415M197.165 218.569C189.491 246.095 184.358 271.06 178.457 296.803M199.888 212.457C219.932 190.851 246.044 181.656 273.019 171.301M227.44 224.016C257.492 234.52 224.954 273.491 214.514 288.665" stroke="black" stroke-width="1.7048"/>
<style>
.path {
  stroke-dasharray: 500;
  stroke-dashoffset: 1000;
  animation: dash 10s linear alternate infinite;
  stroke: #FFF;
}
@keyframes dash {
  to {
    stroke-dashoffset: 0;
  }
}
</style>
</svg>
